<svg width="13" height="22" viewBox="0 0 13 22" fill="none" xmlns="http://www.w3.org/2000/svg">
<mask id="path-1-inside-1_1518_1577" fill="white">
<path d="M10.5001 0.190239L0.0001688 10.6902L10.0002 21.1902C10.1502 21.3777 11.5252 21.3027 11.7502 21.3027C11.9752 21.3027 12.2002 21.1902 12.3502 21.0402C12.6877 20.7027 12.8377 19.5277 12.5002 19.1902L4.00014 10.6902L12.5002 2.19025C12.8377 1.85275 12.6877 0.677745 12.3502 0.340245C12.0127 0.00274488 10.8376 -0.147261 10.5001 0.190239Z"/>
</mask>
<path d="M0.0001688 10.6902L-7.24119 17.5868L-13.9716 10.5199L-7.07091 3.61919L0.0001688 10.6902ZM10.5001 0.190239L3.42906 -6.88082L3.42907 -6.88083L10.5001 0.190239ZM12.3502 0.340245L19.4212 -6.73082L19.4212 -6.73082L12.3502 0.340245ZM12.5002 2.19025L19.5713 9.26131L19.5712 9.26134L12.5002 2.19025ZM4.00014 10.6902L-3.0709 17.7613L-10.142 10.6902L-3.0709 3.61915L4.00014 10.6902ZM12.5002 19.1902L19.5712 12.1192L19.5713 12.1192L12.5002 19.1902ZM12.3502 21.0402L19.4212 28.1113L19.4212 28.1113L12.3502 21.0402ZM10.0002 21.1902L17.2416 14.2937L17.5393 14.6062L17.8089 14.9433L10.0002 21.1902ZM-7.07091 3.61919L3.42906 -6.88082L17.5712 7.2613L7.07125 17.7613L-7.07091 3.61919ZM3.42907 -6.88083C5.64854 -9.1003 8.19049 -9.65905 9.18274 -9.83037C10.4423 -10.0478 11.5655 -10.023 12.4121 -9.93906C13.2823 -9.85275 14.2455 -9.66537 15.2303 -9.32533C16.002 -9.05884 17.7835 -8.3686 19.4212 -6.73082L5.27909 7.41131C6.74812 8.88033 8.25617 9.42526 8.70209 9.57925C9.36103 9.8068 9.94609 9.91449 10.4382 9.9633C10.9066 10.0098 11.6518 10.0393 12.5855 9.87803C13.252 9.76297 15.5205 9.31203 17.5712 7.26131L3.42907 -6.88083ZM19.4212 -6.73082C21.0589 -5.09314 21.7492 -3.31176 22.0157 -2.54006C22.3557 -1.55536 22.5431 -0.592191 22.6295 0.278094C22.7134 1.12462 22.7383 2.2479 22.5208 3.50748C22.3495 4.49978 21.7908 7.04179 19.5713 9.26131L5.42913 -4.88082C3.37836 -2.83005 2.92744 -0.561478 2.81237 0.105038C2.65116 1.03884 2.68068 1.78399 2.72715 2.2524C2.77597 2.74456 2.88368 3.3296 3.11123 3.98852C3.26523 4.43444 3.81016 5.94238 5.27909 7.41131L19.4212 -6.73082ZM19.5712 9.26134L11.0712 17.7613L-3.0709 3.61915L5.42916 -4.88085L19.5712 9.26134ZM11.0712 3.61915L19.5712 12.1192L5.42916 26.2613L-3.0709 17.7613L11.0712 3.61915ZM19.5713 12.1192C21.7908 14.3387 22.3495 16.8807 22.5208 17.873C22.7383 19.1326 22.7134 20.2559 22.6295 21.1024C22.5431 21.9727 22.3557 22.9359 22.0157 23.9206C21.7492 24.6923 21.0589 26.4736 19.4212 28.1113L5.2791 13.9692C3.81017 15.4381 3.26523 16.946 3.11123 17.392C2.88368 18.0509 2.77597 18.6359 2.72715 19.1281C2.68068 19.5965 2.65116 20.3417 2.81237 21.2755C2.92744 21.942 3.37837 24.2106 5.42914 26.2613L19.5713 12.1192ZM19.4212 28.1113C17.7562 29.7763 15.0969 31.3027 11.7502 31.3027V11.3027C10.2175 11.3027 8.92273 11.6775 7.94024 12.1241C6.95751 12.5708 6.05648 13.1918 5.2791 13.9692L19.4212 28.1113ZM11.7502 31.3027C11.8565 31.3027 12.075 31.2978 11.6547 31.3084C11.4448 31.3136 11.1048 31.3206 10.7271 31.3161C10.4127 31.3123 9.77409 31.299 9.0556 31.2085C8.72048 31.1663 8.02761 31.0674 7.20625 30.8183C6.78838 30.6915 6.11788 30.4609 5.35284 30.0548C4.64755 29.6803 3.35635 28.8932 2.19156 27.4372L17.8089 14.9433C16.6629 13.5107 15.4 12.745 14.7314 12.3901C14.0031 12.0034 13.3778 11.7904 13.0123 11.6796C12.2957 11.4622 11.7366 11.3882 11.555 11.3653C11.313 11.3348 11.1409 11.3249 11.0782 11.3216C11.0386 11.3196 11.0099 11.3186 10.9936 11.3181C10.977 11.3176 10.9678 11.3175 10.9671 11.3175C10.9661 11.3175 10.9703 11.3176 10.9802 11.3176C10.99 11.3175 11.0033 11.3175 11.0205 11.3173C11.0559 11.3169 11.0984 11.316 11.1512 11.3147C11.2115 11.3132 11.2515 11.3119 11.3331 11.3096C11.3453 11.3093 11.5496 11.3027 11.7502 11.3027V31.3027ZM2.75889 28.0868L-7.24119 17.5868L7.24152 3.79367L17.2416 14.2937L2.75889 28.0868Z" fill="white" mask="url(#path-1-inside-1_1518_1577)"/>
</svg>
