<svg width="65" height="65" viewBox="0 0 65 65" fill="none" xmlns="http://www.w3.org/2000/svg">
<g id="Stage Button">
<path id="Vector" d="M32.1875 64.375C49.9642 64.375 64.375 49.9642 64.375 32.1875C64.375 14.4108 49.9642 0 32.1875 0C14.4108 0 0 14.4108 0 32.1875C0 49.9642 14.4108 64.375 32.1875 64.375Z" fill="#BD9711"/>
<path id="Vector_2" d="M32.1875 49.3545C41.0758 49.3545 48.2812 42.1491 48.2812 33.2607C48.2812 24.3724 41.0758 17.167 32.1875 17.167C23.2992 17.167 16.0938 24.3724 16.0938 33.2607C16.0938 42.1491 23.2992 49.3545 32.1875 49.3545Z" fill="#3A2C03"/>
<path id="Vector_3" d="M32.1875 47.6367C41.0758 47.6367 48.2812 40.4313 48.2812 31.543C48.2812 22.6546 41.0758 15.4492 32.1875 15.4492C23.2992 15.4492 16.0938 22.6546 16.0938 31.543C16.0938 40.4313 23.2992 47.6367 32.1875 47.6367Z" fill="#704B00"/>
</g>
</svg>
