<svg width="22" height="22" viewBox="0 0 22 22" fill="none" xmlns="http://www.w3.org/2000/svg">
<mask id="path-1-inside-1_1190_1691" fill="white">
<path d="M12.6903 10.6902L21.1902 2.19025C21.5277 1.85275 21.3778 0.677745 21.0403 0.340245C20.7028 0.00274485 19.5277 -0.147253 19.1902 0.190247L10.6903 8.69024L2.19029 0.190239C1.85279 -0.147261 0.677767 0.00274485 0.340267 0.340245C0.00276729 0.677745 -0.147272 1.85275 0.190228 2.19025L8.69029 10.6902L0.190228 19.1902C-0.147272 19.5277 0.00276729 20.7027 0.340267 21.0402C0.490267 21.1902 0.715267 21.3027 0.940267 21.3027C1.16527 21.3027 2.54019 21.3777 2.69019 21.1902L10.6903 12.6902L19.1902 21.0402C19.3402 21.1902 20.2153 21.3027 20.4403 21.3027C20.6653 21.3027 21.5402 21.2277 21.6902 21.0402C22.0277 20.7027 22.0277 19.5277 21.6902 19.1902L12.6903 10.6902Z"/>
</mask>
<path d="M12.6903 10.6902L21.1902 2.19025C21.5277 1.85275 21.3778 0.677745 21.0403 0.340245C20.7028 0.00274485 19.5277 -0.147253 19.1902 0.190247L10.6903 8.69024L2.19029 0.190239C1.85279 -0.147261 0.677767 0.00274485 0.340267 0.340245C0.00276729 0.677745 -0.147272 1.85275 0.190228 2.19025L8.69029 10.6902L0.190228 19.1902C-0.147272 19.5277 0.00276729 20.7027 0.340267 21.0402C0.490267 21.1902 0.715267 21.3027 0.940267 21.3027C1.16527 21.3027 2.54019 21.3777 2.69019 21.1902L10.6903 12.6902L19.1902 21.0402C19.3402 21.1902 20.2153 21.3027 20.4403 21.3027C20.6653 21.3027 21.5402 21.2277 21.6902 21.0402C22.0277 20.7027 22.0277 19.5277 21.6902 19.1902L12.6903 10.6902Z" fill="white"/>
<path d="M12.6903 10.6902L5.61918 3.61922L-1.65667 10.8952L5.82401 17.9603L12.6903 10.6902ZM21.1902 2.19025L14.1191 -4.88082L14.1191 -4.88078L21.1902 2.19025ZM19.1902 0.190247L12.1191 -6.88082L12.1191 -6.88079L19.1902 0.190247ZM10.6903 8.69024L3.61919 15.7613L10.6903 22.8324L17.7614 15.7613L10.6903 8.69024ZM2.19029 0.190239L9.26137 -6.88082L9.26136 -6.88083L2.19029 0.190239ZM0.190228 2.19025L-6.88084 9.26131L-6.88081 9.26134L0.190228 2.19025ZM8.69029 10.6902L15.7613 17.7613L22.8325 10.6902L15.7613 3.61915L8.69029 10.6902ZM0.190228 19.1902L-6.88082 12.1192L-6.88084 12.1192L0.190228 19.1902ZM2.69019 21.1902L-4.59178 14.3366L-4.86734 14.6293L-5.1185 14.9433L2.69019 21.1902ZM10.6903 12.6902L17.6981 5.55654L10.4102 -1.60288L3.4083 5.83656L10.6903 12.6902ZM19.1902 21.0402L26.2613 13.9692L26.2298 13.9377L26.1981 13.9065L19.1902 21.0402ZM21.6902 21.0402L14.6191 13.9692L14.2275 14.3608L13.8815 14.7933L21.6902 21.0402ZM21.6902 19.1902L28.7613 12.1192L28.6603 12.0182L28.5565 11.9202L21.6902 19.1902ZM19.7614 17.7613L28.2613 9.26127L14.1191 -4.88078L5.61918 3.61922L19.7614 17.7613ZM28.2613 9.26131C30.4805 7.04205 31.0394 4.50037 31.2107 3.50816C31.4282 2.24868 31.4035 1.12545 31.3196 0.278889C31.2333 -0.591407 31.046 -1.55465 30.706 -2.53947C30.4395 -3.31126 29.7492 -5.09292 28.1113 -6.73082L13.9692 7.41131C12.5 5.94216 11.9551 4.43393 11.8011 3.98792C11.5736 3.32889 11.4659 2.74377 11.4171 2.2516C11.3707 1.78317 11.3412 1.03806 11.5025 0.104366C11.6176 -0.562068 12.0686 -2.8303 14.1191 -4.88082L28.2613 9.26131ZM28.1113 -6.73082C26.4735 -8.36867 24.6919 -9.05891 23.9202 -9.32537C22.9355 -9.6654 21.9723 -9.85277 21.1021 -9.93907C20.2555 -10.023 19.1323 -10.0478 17.8728 -9.83036C16.8806 -9.65906 14.3386 -9.10034 12.1191 -6.88082L26.2613 7.26131C24.2105 9.31208 21.9419 9.76299 21.2756 9.87804C20.3418 10.0393 19.5968 10.0098 19.1284 9.96331C18.6363 9.91451 18.0512 9.80683 17.3923 9.5793C16.9464 9.42533 15.4383 8.88041 13.9692 7.41131L28.1113 -6.73082ZM12.1191 -6.88079L3.61917 1.6192L17.7614 15.7613L26.2613 7.26128L12.1191 -6.88079ZM17.7613 1.61918L9.26137 -6.88082L-4.88079 7.2613L3.61919 15.7613L17.7613 1.61918ZM9.26136 -6.88083C7.04189 -9.1003 4.49994 -9.65905 3.50769 -9.83037C2.24815 -10.0478 1.12489 -10.023 0.278366 -9.93906C-0.591914 -9.85275 -1.5551 -9.66537 -2.53983 -9.32533C-3.31154 -9.05884 -5.09303 -8.3686 -6.7308 -6.73082L7.41133 7.41131C5.94231 8.88033 4.43426 9.42526 3.98834 9.57925C3.3294 9.8068 2.74434 9.91449 2.25219 9.9633C1.7838 10.0098 1.03867 10.0393 0.104914 9.87803C-0.561544 9.76297 -2.83005 9.31203 -4.88078 7.26131L9.26136 -6.88083ZM-6.7308 -6.73082C-8.36848 -5.09314 -9.05873 -3.31176 -9.32524 -2.54006C-9.6653 -1.55536 -9.8527 -0.592191 -9.93903 0.278094C-10.023 1.12462 -10.0479 2.2479 -9.8304 3.50748C-9.65909 4.49978 -9.10036 7.04179 -6.88084 9.26131L7.2613 -4.88082C9.31207 -2.83005 9.76299 -0.561477 9.87806 0.105039C10.0393 1.03884 10.0097 1.78399 9.96328 2.2524C9.91446 2.74456 9.80675 3.3296 9.5792 3.98852C9.4252 4.43444 8.88027 5.94238 7.41133 7.41131L-6.7308 -6.73082ZM-6.88081 9.26134L1.61925 17.7613L15.7613 3.61915L7.26127 -4.88085L-6.88081 9.26134ZM1.61925 3.61915L-6.88082 12.1192L7.26127 26.2613L15.7613 17.7613L1.61925 3.61915ZM-6.88084 12.1192C-9.10036 14.3387 -9.65909 16.8807 -9.8304 17.873C-10.0479 19.1326 -10.023 20.2559 -9.93903 21.1024C-9.8527 21.9727 -9.6653 22.9359 -9.32524 23.9206C-9.05873 24.6923 -8.36848 26.4736 -6.7308 28.1113L7.41133 13.9692C8.88026 15.4381 9.4252 16.946 9.5792 17.392C9.80675 18.0509 9.91446 18.6359 9.96328 19.1281C10.0097 19.5965 10.0393 20.3417 9.87806 21.2755C9.76299 21.942 9.31206 24.2105 7.2613 26.2613L-6.88084 12.1192ZM-6.7308 28.1113C-5.0658 29.7763 -2.40642 31.3027 0.940267 31.3027V11.3027C2.47295 11.3027 3.76769 11.6775 4.75019 12.1241C5.73291 12.5708 6.63396 13.1918 7.41133 13.9692L-6.7308 28.1113ZM0.940267 31.3027C0.833968 31.3027 0.615387 31.2978 1.03577 31.3084C1.24563 31.3136 1.58567 31.3206 1.96333 31.3161C2.27778 31.3123 2.91634 31.299 3.63483 31.2085C3.96995 31.1663 4.66282 31.0674 5.48418 30.8183C5.90205 30.6915 6.57255 30.4609 7.33759 30.0548C8.04288 29.6803 9.33409 28.8932 10.4989 27.4372L-5.1185 14.9433C-3.97246 13.5107 -2.70958 12.745 -2.04102 12.3901C-1.31271 12.0034 -0.687352 11.7904 -0.321866 11.6796C0.394709 11.4622 0.953796 11.3882 1.13541 11.3653C1.37738 11.3348 1.54955 11.3249 1.61225 11.3216C1.6518 11.3196 1.68057 11.3186 1.69684 11.3181C1.71345 11.3176 1.72259 11.3175 1.72337 11.3175C1.72434 11.3175 1.72012 11.3176 1.71024 11.3176C1.70046 11.3175 1.68712 11.3175 1.66993 11.3173C1.63457 11.3169 1.59198 11.316 1.53927 11.3147C1.47892 11.3132 1.43891 11.3119 1.3573 11.3096C1.34517 11.3093 1.1408 11.3027 0.940267 11.3027V31.3027ZM9.97215 28.0439L17.9722 19.5439L3.4083 5.83656L-4.59178 14.3366L9.97215 28.0439ZM3.68239 19.8239L12.1823 28.1739L26.1981 13.9065L17.6981 5.55654L3.68239 19.8239ZM12.1191 28.1113C13.4205 29.4127 14.7599 30.0274 15.1729 30.2132C15.7634 30.4791 16.2711 30.642 16.5729 30.7315C17.1869 30.9137 17.7276 31.0188 18.0494 31.0756C18.5404 31.1623 19.4747 31.3027 20.4403 31.3027V11.3027C20.7624 11.3027 20.9979 11.3199 21.0625 11.3246C21.162 11.3319 21.2341 11.3394 21.2754 11.344C21.3525 11.3525 21.4295 11.3631 21.5248 11.3799C21.5809 11.3898 21.8607 11.4387 22.2614 11.5576C22.4566 11.6155 22.8695 11.745 23.3826 11.9759C23.6469 12.0949 24.0312 12.2824 24.4738 12.5552C24.8929 12.8136 25.5591 13.267 26.2613 13.9692L12.1191 28.1113ZM20.4403 31.3027C21.1663 31.3027 21.9727 31.2275 22.6621 31.118C23.0223 31.0608 23.6875 30.9427 24.4522 30.7032C24.8331 30.5839 25.4663 30.3648 26.1911 29.9905C26.7899 29.6813 28.2237 28.8811 29.4989 27.2872L13.8815 14.7933C15.1192 13.2462 16.4928 12.4894 17.0141 12.2202C17.6616 11.8859 18.2 11.7034 18.4743 11.6175C19.0258 11.4448 19.43 11.3806 19.5247 11.3656C19.6828 11.3405 19.9392 11.3027 20.4403 11.3027V31.3027ZM28.7613 28.1113C30.6802 26.1924 31.3314 24.0485 31.5606 23.1635C31.8524 22.037 31.9433 20.9864 31.9433 20.1152C31.9433 19.2441 31.8524 18.1935 31.5606 17.067C31.3314 16.182 30.6802 14.0381 28.7613 12.1192L14.6191 26.2613C12.869 24.5112 12.3443 22.6407 12.1994 22.0814C11.9921 21.2808 11.9433 20.6083 11.9433 20.1152C11.9433 19.6222 11.9921 18.9497 12.1994 18.149C12.3443 17.5898 12.869 15.7193 14.6191 13.9692L28.7613 28.1113ZM28.5565 11.9202L19.5566 3.42015L5.82401 17.9603L14.8239 26.4603L28.5565 11.9202Z" fill="white" mask="url(#path-1-inside-1_1190_1691)"/>
</svg>
