<svg width="26" height="25" viewBox="0 0 26 25" fill="none" xmlns="http://www.w3.org/2000/svg">
<path d="M23 12.5C23 18.8513 17.8513 24 11.5 24C5.14873 24 0 18.8513 0 12.5C0 6.14873 5.14873 1 11.5 1C17.8513 1 23 6.14873 23 12.5ZM2.24969 12.5C2.24969 17.6088 6.39119 21.7503 11.5 21.7503C16.6088 21.7503 20.7503 17.6088 20.7503 12.5C20.7503 7.39119 16.6088 3.24969 11.5 3.24969C6.39119 3.24969 2.24969 7.39119 2.24969 12.5Z" fill="#DDAC17"/>
<path d="M13.5 24.05C19.8789 24.05 25.05 18.8789 25.05 12.5C25.05 6.12111 19.8789 0.95 13.5 0.95C7.12111 0.95 1.95 6.12111 1.95 12.5C1.95 18.8789 7.12111 24.05 13.5 24.05Z" fill="#C09525" stroke="black" stroke-width="0.1"/>
<rect x="10.0677" y="6.36211" width="1.45294" height="12.2765" fill="#FFDC60" stroke="black" stroke-width="0.1"/>
<rect x="16.8323" y="6.36211" width="1.45294" height="12.2765" fill="#FFDC60" stroke="black" stroke-width="0.1"/>
<path d="M23.5562 11.4073C23.2842 8.89506 22.0846 6.57469 20.1921 4.90021C18.2996 3.22572 15.8504 2.31762 13.3238 2.35357C10.7971 2.38952 8.37472 3.36694 6.53064 5.09459C4.68656 6.82224 3.55345 9.1758 3.35303 11.6948L3.99754 11.8231C4.15493 9.84502 5.96373 7.76806 7.41185 6.41136C8.85998 5.05467 11.3706 4.56032 13.3548 4.53209C15.3389 4.50385 18.1022 5.09642 19.5883 6.41136C21.0745 7.72631 22.7251 9.72194 22.9387 11.6948L23.5562 11.4073Z" fill="#A98321"/>
<path d="M13.4111 10.6528L13.4575 10.6296L13.4326 10.584C13.1134 10.002 12.7082 9.57713 12.1978 9.29826C11.6877 9.01961 11.076 8.88871 10.3468 8.88871C9.63303 8.88871 8.76787 9.10449 8.0801 9.66507C7.39053 10.2271 6.88387 11.1322 6.88387 12.5C6.88387 14.0545 7.48435 14.9607 8.22217 15.4763C8.95692 15.9897 9.82152 16.1113 10.3468 16.1113C12.2278 16.1113 13.1691 14.8317 13.4334 14.303L13.4553 14.2592L13.412 14.2364L12.0023 13.4945L11.9518 13.4679L11.9321 13.5214C11.805 13.8664 11.6251 14.1074 11.3989 14.2626C11.1727 14.4179 10.8958 14.4903 10.5694 14.4903C10.0102 14.4903 9.63677 14.2661 9.40076 13.9099C9.16266 13.5505 9.06129 13.0517 9.06129 12.5C9.06129 11.8186 9.19047 11.3215 9.44048 10.9956C9.68851 10.6722 10.0616 10.5097 10.5694 10.5097C10.6352 10.5097 11.3891 10.5437 11.7852 11.4079L11.8067 11.455L11.853 11.4318L13.4111 10.6528ZM20.0518 10.6526L20.0976 10.6291L20.0729 10.584C19.7535 10.0017 19.339 9.57695 18.8288 9.29826C18.319 9.01975 17.7167 8.88871 17.0242 8.88871C16.3105 8.88871 15.4453 9.10449 14.7575 9.66507C14.0679 10.2271 13.5613 11.1322 13.5613 12.5C13.5613 14.0545 14.1618 14.9607 14.8996 15.4763C15.6343 15.9897 16.4989 16.1113 17.0242 16.1113C18.9353 16.1113 19.8535 14.6978 20.0673 14.3688C20.085 14.3414 20.0979 14.3216 20.1061 14.3106L20.1417 14.2632L20.0889 14.2362L18.6422 13.4942L18.5919 13.4685L18.5724 13.5214C18.4453 13.8664 18.2654 14.1074 18.0392 14.2626C17.813 14.4179 17.5361 14.4903 17.2097 14.4903C16.6505 14.4903 16.2771 14.2661 16.0411 13.9099C15.803 13.5505 15.7016 13.0517 15.7016 12.5C15.7016 11.8186 15.8308 11.3215 16.0808 10.9956C16.3288 10.6722 16.7019 10.5097 17.2097 10.5097H17.2102C17.3179 10.5097 18.0674 10.5097 18.4623 11.4072L18.4837 11.4558L18.5309 11.4316L20.0518 10.6526ZM13.4629 0.95C6.8306 0.95 1.95 6.31581 1.95 12.5C1.95 18.9458 7.24055 24.05 13.4629 24.05C19.5347 24.05 25.05 19.393 25.05 12.5C25.05 6.09206 20.057 0.95 13.4629 0.95ZM13.5371 21.8726C8.37116 21.8726 4.12742 17.5917 4.12742 12.5C4.12742 7.62903 8.07616 3.12742 13.5371 3.12742C18.7403 3.12742 22.9095 7.22286 22.9097 12.4997C22.8728 18.1084 18.2976 21.8726 13.5371 21.8726Z" fill="#FFDC60" stroke="black" stroke-width="0.1"/>
</svg>
