<svg width="22" height="22" viewBox="0 0 22 22" fill="none" xmlns="http://www.w3.org/2000/svg">
<g id="Empty Star">
<path id="Vector" d="M21.1596 8.33162L21.16 8.33169C21.1758 8.33412 21.1825 8.33875 21.1885 8.34465C21.1973 8.3531 21.2107 8.37152 21.2198 8.40283C21.2289 8.43429 21.2304 8.46861 21.2247 8.49866C21.2199 8.5239 21.2113 8.54059 21.2035 8.55092L16.3022 13.6018L16.1269 13.7825L16.1677 14.0309L17.3302 21.1184L17.3335 21.1388L17.3385 21.1588C17.3386 21.1592 17.3387 21.1596 17.3388 21.1599C17.3369 21.1638 17.3305 21.1742 17.3152 21.1853C17.2989 21.1971 17.2813 21.2031 17.2676 21.2044C17.2566 21.2055 17.2481 21.204 17.2384 21.1988C17.2383 21.1987 17.2381 21.1986 17.238 21.1986L11.1643 17.8618L10.9243 17.7299L10.684 17.8612L4.57146 21.1987L4.55209 21.2092L4.53372 21.2215C4.51709 21.2326 4.50607 21.2366 4.50116 21.238C4.49855 21.2388 4.49689 21.239 4.49609 21.2391L4.49493 21.2392L4.49468 21.2392L4.49314 21.2387C4.49142 21.2381 4.48784 21.2365 4.48295 21.2328C4.46014 21.2157 4.43415 21.1734 4.44252 21.1152C4.44259 21.1146 4.44267 21.1141 4.44276 21.1135L5.60448 14.0309L5.64523 13.7825L5.4699 13.6018L0.557402 8.5393L0.545626 8.52717L0.533056 8.51585C0.515241 8.49982 0.507291 8.48421 0.503296 8.46849C0.498704 8.45041 0.498454 8.4272 0.505493 8.40283C0.512554 8.37839 0.524712 8.36045 0.536065 8.34976C0.545444 8.34093 0.556394 8.33458 0.574064 8.33177C0.574243 8.33174 0.574422 8.33171 0.574602 8.33169L7.32274 7.31947L7.58626 7.27994L7.70039 7.03916L10.7725 0.55783C10.7875 0.528979 10.8032 0.516226 10.813 0.510204C10.8243 0.503233 10.8365 0.5 10.8486 0.5C10.8607 0.5 10.8729 0.503233 10.8842 0.510204C10.894 0.51625 10.9097 0.52908 10.9249 0.558169L13.9972 7.00267L14.111 7.24122L14.3721 7.28162L21.1596 8.33162Z" fill="url(#paint0_linear_1518_1598)" stroke="#DDAC17"/>
</g>
<defs>
<linearGradient id="paint0_linear_1518_1598" x1="-11.5" y1="13.5" x2="34.5" y2="13.5" gradientUnits="userSpaceOnUse">
<stop offset="0.9998" stop-color="#FFF98A" stop-opacity="0"/>
<stop offset="0.9999" stop-color="#ECC440" stop-opacity="0"/>
<stop offset="1" stop-color="#ECC440"/>
</linearGradient>
</defs>
</svg>
