<svg width="41" height="41" viewBox="0 0 41 41" fill="none" xmlns="http://www.w3.org/2000/svg">
<path d="M20.4661 0C9.14876 0 0 9.14876 0 20.4661C0 31.7835 9.14876 41 20.4661 41C31.7835 41 41 31.7835 41 20.4661C41 9.14876 31.7835 0 20.4661 0ZM20.4661 37.9504C10.843 37.9504 3.04959 30.0893 3.04959 20.4661C3.04959 10.843 10.843 3.04959 20.4661 3.04959C30.0893 3.04959 37.9504 10.9107 37.9504 20.5339C37.9504 30.0893 30.0893 37.9504 20.4661 37.9504Z" fill="#C3073F"/>
<path d="M26.7007 14.1645C26.0908 13.5546 25.142 13.5546 24.5321 14.1645L20.466 18.2984L16.3321 14.1645C15.7222 13.5546 14.7734 13.5546 14.1635 14.1645C13.5536 14.7744 13.5536 15.7231 14.1635 16.3331L18.2974 20.4669L14.1635 24.6008C13.5536 25.2107 13.5536 26.1595 14.1635 26.7694C14.4346 27.0405 14.8412 27.2438 15.2478 27.2438C15.6544 27.2438 16.061 27.1083 16.3321 26.7694L20.466 22.6355L24.5999 26.7694C24.8709 27.0405 25.2775 27.2438 25.6842 27.2438C26.0908 27.2438 26.4974 27.1083 26.7685 26.7694C27.3784 26.1595 27.3784 25.2107 26.7685 24.6008L22.6346 20.4669L26.7685 16.3331C27.3106 15.7231 27.3106 14.7744 26.7007 14.1645Z" fill="#C3073F"/>
</svg>
