<svg width="41" height="41" viewBox="0 0 41 41" fill="none" xmlns="http://www.w3.org/2000/svg">
<g id="Group 108">
<g id="Group 15">
<path id="Vector" d="M20.4661 0C9.14876 0 0 9.14876 0 20.4661C0 31.7835 9.14876 41 20.4661 41C31.7835 41 41 31.7835 41 20.4661C41 9.14876 31.7835 0 20.4661 0ZM20.4661 37.9504C10.843 37.9504 3.04959 30.0893 3.04959 20.4661C3.04959 10.843 10.843 3.04959 20.4661 3.04959C30.0893 3.04959 37.9504 10.9107 37.9504 20.5339C37.9504 30.0893 30.0893 37.9504 20.4661 37.9504Z" fill="#BD9711"/>
</g>
<g id="Bulb">
<path id="Vector_2" d="M17.3711 26.2012V28.5302C17.3711 28.9419 17.5449 29.3369 17.8543 29.6281C18.1637 29.9193 18.5833 30.0828 19.0208 30.0828H22.3202C22.7577 30.0828 23.1774 29.9193 23.4868 29.6281C23.7961 29.3369 23.9699 28.9419 23.9699 28.5302V26.4238" stroke="#BD9711" stroke-width="2" stroke-linecap="round" stroke-linejoin="round"/>
<path id="Vector_3" d="M20.8643 7.56934V9.122" stroke="#BD9711" stroke-width="2" stroke-linecap="round" stroke-linejoin="round"/>
<path id="Vector_4" d="M8.83105 19.2139H10.3837" stroke="#BD9711" stroke-width="2" stroke-linecap="round" stroke-linejoin="round"/>
<path id="Vector_5" d="M11.5488 11.0625L12.7133 12.227" stroke="#BD9711" stroke-width="2" stroke-linecap="round" stroke-linejoin="round"/>
<path id="Vector_6" d="M32.5092 19.2139H30.5684" stroke="#BD9711" stroke-width="2" stroke-linecap="round" stroke-linejoin="round"/>
<path id="Vector_7" d="M29.7924 11.0625L28.6279 12.227" stroke="#BD9711" stroke-width="2" stroke-linecap="round" stroke-linejoin="round"/>
<path id="Vector_8" d="M17.2116 26.201H24.1299C25.3793 25.578 26.4279 24.6129 27.1551 23.4171C27.8821 22.2214 28.2581 20.8434 28.2394 19.4423C28.204 17.4369 27.3953 15.5235 25.9835 14.1052C24.5717 12.687 22.6671 11.8745 20.6707 11.8389C18.6737 11.8745 16.7685 12.6876 15.3566 14.1069C13.9447 15.5261 13.1364 17.4406 13.1022 19.4469C13.0844 20.8472 13.4607 22.2241 14.1877 23.419C14.9147 24.614 15.963 25.5783 17.2116 26.201Z" stroke="#BD9711" stroke-width="2" stroke-linecap="round" stroke-linejoin="round"/>
<path id="Vector_9" d="M20.8643 30.083V32.8002" stroke="#BD9711" stroke-width="2" stroke-linecap="round" stroke-linejoin="round"/>
<path id="Vector_10" d="M20.8643 21.9316V26.2015" stroke="#BD9711" stroke-width="2" stroke-linecap="round" stroke-linejoin="round"/>
<path id="Vector_11" d="M18.1475 19.2139L20.6705 21.931L23.1936 19.2139" stroke="#BD9711" stroke-width="2" stroke-linecap="round" stroke-linejoin="round"/>
</g>
</g>
</svg>
