<svg width="19" height="26" viewBox="0 0 19 26" fill="none" xmlns="http://www.w3.org/2000/svg">
<path fill-rule="evenodd" clip-rule="evenodd" d="M18.7438 16.4409C18.5347 21.4345 14.4219 25.4191 9.37693 25.4191C4.19817 25.4191 6.58234e-06 21.0798 6.58234e-06 16.0422C6.58234e-06 15.3688 -0.0120638 14.0231 0.997551 11.7527C1.60176 10.394 1.98073 9.54037 2.1946 8.76009C2.31212 8.33125 2.54065 7.64993 3.19215 8.76009C3.5763 9.41468 3.59117 10.3562 3.59117 10.3562C3.59117 10.3562 5.02045 9.25936 5.98527 7.16402C7.39969 4.09228 6.27117 2.2561 5.88552 0.979245C5.75205 0.537532 5.66826 -0.256314 6.5838 0.081455C7.51671 0.425708 9.98304 2.15216 11.2723 3.97188C13.1122 6.56899 13.7661 9.05936 13.7661 9.05936C13.7661 9.05936 14.3553 8.32816 14.5642 7.56304C14.8001 6.69907 14.8036 5.84337 15.5616 6.7651C16.2825 7.64165 17.3532 9.28889 17.9558 10.8549C19.05 13.6988 18.7438 16.4409 18.7438 16.4409Z" fill="url(#paint0_linear_1257_2062)"/>
<path fill-rule="evenodd" clip-rule="evenodd" d="M9.37711 25.4189C5.79602 25.4189 2.89307 22.5159 2.89307 18.9348C2.89307 16.7741 3.76382 15.4622 5.57606 13.6832C6.73641 12.5441 7.82243 11.145 8.284 10.1924C8.37487 10.0048 8.58166 9.02753 9.379 10.1718C9.79727 10.7719 10.453 11.8392 10.8734 12.7501C11.5982 14.3205 11.7712 15.8425 11.7712 15.8425C11.7712 15.8425 12.4816 15.4239 12.9683 14.3461C13.1252 13.9988 13.4424 12.6838 14.3292 13.9986C14.9799 14.9634 15.8738 16.6981 15.8611 18.9348C15.8611 22.5159 12.9581 25.4189 9.37711 25.4189Z" fill="#FC9502"/>
<path fill-rule="evenodd" clip-rule="evenodd" d="M9.47643 18.3369C10.3992 18.3369 10.3992 20.0456 11.5713 22.3271C12.3518 23.8463 11.1843 25.4195 9.47643 25.4195C7.76853 25.4195 6.88281 24.035 6.88281 22.3271C6.88281 20.6193 8.5537 18.3369 9.47643 18.3369Z" fill="#FCE202"/>
<defs>
<linearGradient id="paint0_linear_1257_2062" x1="9.39099" y1="25.4378" x2="9.39099" y2="0.019208" gradientUnits="userSpaceOnUse">
<stop stop-color="#FF4C0D"/>
<stop offset="1" stop-color="#FC9502"/>
</linearGradient>
</defs>
</svg>
