<svg width="41" height="41" viewBox="0 0 41 41" fill="none" xmlns="http://www.w3.org/2000/svg">
<g id="Group">
<path id="Vector" d="M20.4661 0C9.14876 0 0 9.14876 0 20.4661C0 31.7835 9.14876 41 20.4661 41C31.7835 41 41 31.7835 41 20.4661C41 9.14876 31.7835 0 20.4661 0ZM20.4661 37.9504C10.843 37.9504 3.04959 30.0893 3.04959 20.4661C3.04959 10.843 10.843 3.04959 20.4661 3.04959C30.0893 3.04959 37.9504 10.9107 37.9504 20.5339C37.9504 30.0893 30.0893 37.9504 20.4661 37.9504Z" fill="#39E53D"/>
<path id="Vector_2" d="M26.2942 14.1632L18.2297 22.0243L14.5702 18.4326C13.9603 17.8227 13.0116 17.8904 12.4016 18.4326C11.7917 19.0425 11.8595 19.9913 12.4016 20.6012L16.7388 24.8028C17.1454 25.2094 17.6876 25.4128 18.2297 25.4128C18.7719 25.4128 19.314 25.2094 19.7206 24.8028L28.4628 16.3995C29.0727 15.7896 29.0727 14.8408 28.4628 14.2309C27.8529 13.621 26.9041 13.621 26.2942 14.1632Z" fill="#39E53D"/>
</g>
</svg>
