<svg width="30" height="26" viewBox="0 0 30 26" fill="none" xmlns="http://www.w3.org/2000/svg">
<g id="Heart">
<path id="Vector" d="M14.7266 26C14.3203 26 13.9141 25.8477 13.6094 25.5938C12.4414 24.5781 11.2734 23.6133 10.2578 22.75C7.31251 20.2617 4.72265 18.0781 2.94531 15.9453C0.914068 13.5078 0 11.2734 0 8.78516C0 6.39844 0.812503 4.16407 2.33594 2.53907C3.85937 0.914068 5.94141 5.25798e-06 8.22656 5.25798e-06C9.90234 5.25798e-06 11.4766 0.558599 12.8477 1.57422C13.4062 1.98047 13.8633 2.48829 14.3203 3.04688C14.5234 3.30079 14.8789 3.30079 15.082 3.04688C15.5391 2.48829 16.0469 2.03126 16.5547 1.57422C17.9258 0.507818 19.5 5.25798e-06 21.1758 5.25798e-06C23.4609 5.25798e-06 25.543 0.914068 27.0664 2.53907C28.5898 4.16407 29.4023 6.39844 29.4023 8.78516C29.4023 11.2734 28.4883 13.5078 26.457 15.8945C24.6797 18.0273 22.0898 20.2109 19.1445 22.6992C18.1289 23.5625 16.9609 24.5273 15.793 25.543C15.5391 25.8477 15.1328 26 14.7266 26Z" fill="#C3073F"/>
</g>
</svg>
