<svg width="94" height="88" viewBox="0 0 94 88" fill="none" xmlns="http://www.w3.org/2000/svg">
<g id="Home">
<path id="Rectangle 61" d="M10 71.5L24 57.5L38 71.5V85.5H28.5V76H21V85.5H10.5L10 71.5Z" fill="#704B00"/>
<path id="Vector" d="M34.6802 0.315948C34.1914 0.574738 34.1626 2.09869 34.1626 25.8206C34.1626 45.0857 34.2489 51.1528 34.5076 51.4116C35.1115 52.0154 36.1754 51.8141 36.4629 51.009C36.6354 50.549 36.7504 41.2327 36.7504 26.4245V2.58751H55.1529H73.5554V10.7249C73.5554 16.7919 73.6417 18.9772 73.9292 19.351C74.2455 19.7823 75.1944 19.8398 82.6129 19.8973L90.9515 19.9836L91.0378 48.3637L91.0953 76.7725H70.7375C55.2967 76.7725 50.2935 76.8588 50.0347 77.1175C49.5459 77.6064 49.6034 78.3827 50.1498 78.9003C50.5523 79.3028 52.8814 79.3604 71.5714 79.3604C92.1592 79.3604 92.533 79.3604 93.108 78.7853C93.6831 78.2102 93.6831 77.8364 93.6831 48.3637V18.5459L84.3956 9.25841L75.1369 -0.000343323H55.1529C42.1274 0.0284119 34.9965 0.11467 34.6802 0.315948ZM82.7566 11.0699L89.2263 17.5395H82.6704H76.1433V11.0699C76.1433 7.50442 76.172 4.60028 76.2295 4.60028C76.2583 4.60028 79.1912 7.50442 82.7566 11.0699Z" fill="#BD9711"/>
<path id="Vector_2" d="M50.3794 27.9494C49.143 29.5884 48.1078 30.9686 48.0791 31.0261C48.0216 31.0836 47.389 30.5948 46.6702 29.9334C45.9801 29.3009 45.2037 28.7545 44.9737 28.7545C44.2548 28.7545 43.6222 29.6172 43.8235 30.3072C44.1111 31.1986 47.4178 34.189 48.1654 34.2178C48.6542 34.2178 49.4305 33.4127 51.357 30.8248C54.6062 26.5405 54.6637 26.4255 54.1174 25.6491C53.3123 24.499 52.7085 24.8728 50.3794 27.9494Z" fill="#BD9711"/>
<path id="Vector_3" d="M58.028 28.438C57.6254 29.2143 57.6542 29.5019 58.2005 30.0194C58.5743 30.422 60.0407 30.4795 69.8458 30.4795C77.0343 30.4795 81.2611 30.3645 81.6349 30.192C82.2387 29.8469 82.3538 28.7543 81.8362 28.2367C81.5774 27.9779 78.5295 27.8916 69.9033 27.8916C58.7468 27.8916 58.3155 27.9204 58.028 28.438Z" fill="#BD9711"/>
<path id="Vector_4" d="M51.9325 38.7314C51.5299 39.1914 50.466 40.5429 49.5747 41.7793L47.9357 44.0221L46.6705 42.8719C45.9517 42.2106 45.2616 41.693 45.0891 41.693C44.4277 41.693 43.6514 42.3256 43.6514 42.8432C43.6514 43.562 47.3606 47.1562 48.1082 47.1562C48.5108 47.1562 49.5172 46.0636 51.5012 43.4182C54.2615 39.7378 54.6066 38.9614 53.9453 38.3001C53.3989 37.7537 52.7376 37.8975 51.9325 38.7314Z" fill="#BD9711"/>
<path id="Vector_5" d="M58.0856 41.1755C57.6256 41.6356 57.6543 42.4119 58.1431 42.8145C58.4019 43.0445 61.8524 43.102 70.2773 43.0732L82.0376 42.987V41.9806V40.9742L70.2485 40.888C61.3061 40.8304 58.3444 40.9167 58.0856 41.1755Z" fill="#BD9711"/>
<path id="Vector_6" d="M11.7918 59.0319C1.84296 68.9807 -0.0835454 71.051 0.00271623 71.6261C0.060224 72.1437 0.290255 72.3449 0.92284 72.4025C1.6992 72.4887 2.79184 71.4823 12.9132 61.361L24.041 50.2332L35.1687 61.3322C43.191 69.3833 46.4402 72.46 46.9003 72.46C47.6766 72.46 48.2517 71.9711 48.2517 71.3386C48.2517 70.7635 24.6735 47.1565 24.0985 47.1565C23.8684 47.1565 18.3189 52.5048 11.7918 59.0319Z" fill="#BD9711"/>
<path id="Vector_7" d="M51.2421 54.4024C50.0057 56.0413 48.9705 57.4215 48.913 57.479C48.8555 57.5653 48.2517 57.0765 47.5903 56.4151C46.9002 55.7538 46.1526 55.2075 45.8939 55.2075C45.3188 55.2075 44.5137 55.9551 44.5137 56.4726C44.5137 56.6739 45.3763 57.7091 46.4689 58.7729C47.9354 60.2394 48.568 60.6707 49.0855 60.6132C49.6319 60.5557 50.5232 59.5781 52.6223 56.8177C54.175 54.7474 55.4401 52.8784 55.4401 52.6196C55.4401 51.9583 54.8651 51.4695 54.0887 51.4695C53.5999 51.4695 52.9098 52.1883 51.2421 54.4024Z" fill="#BD9711"/>
<path id="Vector_8" d="M58.9481 54.6898C58.4593 55.1786 58.5168 55.955 59.0631 56.4726C59.4369 56.8751 60.9034 56.9326 70.7084 56.9326C77.8969 56.9326 82.1237 56.8176 82.4975 56.6451C83.1014 56.3 83.2164 55.2074 82.6988 54.6898C82.21 54.201 59.4369 54.201 58.9481 54.6898Z" fill="#BD9711"/>
<path id="Vector_9" d="M15.7021 62.4537L7.99609 70.3035V78.4983C7.99609 84.5079 8.08236 86.8082 8.34114 87.067C8.82996 87.5558 20.6766 87.5558 21.1654 87.067C21.3954 86.837 21.5104 85.2267 21.5104 81.7475V76.7731H24.5296H27.5487L27.6062 82.0063L27.6925 87.2683L33.8458 87.3545C38.5902 87.412 40.0567 87.3258 40.2579 87.067C40.373 86.8657 40.488 82.9839 40.488 78.4696V70.246L32.5807 62.4249C27.0887 57.0192 24.4433 54.6326 24.012 54.6326C23.5519 54.6039 21.2229 56.7892 15.7021 62.4537ZM31.0567 64.6102L37.9001 71.4536V78.2683V85.1117H33.8746H29.849V79.9935C29.849 76.3993 29.734 74.7603 29.504 74.5303C29.0152 74.0415 19.7564 74.0415 19.2676 74.5303C19.0376 74.7603 18.9226 76.3993 18.9226 79.9935V85.1405L14.6957 85.0542L10.4402 84.9679L10.3539 78.2108L10.2964 71.4824L17.1111 64.639C20.8778 60.8722 24.012 57.7955 24.0983 57.7955C24.1845 57.7955 27.3187 60.8722 31.0567 64.6102Z" fill="#BD9711"/>
</g>
</svg>
