<svg width="33" height="39" viewBox="0 0 33 39" fill="none" xmlns="http://www.w3.org/2000/svg">
<path d="M16.983 4.29032L16.9858 4.29059C19.9537 4.57058 22.3461 7.27496 22.3461 10.4629V11.3703H10.4955V10.0345C10.4955 8.46718 11.1664 6.94765 12.4124 5.81499C13.6567 4.68374 15.292 4.12122 16.983 4.29032ZM32.2804 19.5237C32.3415 15.7323 29.6641 12.575 26.0998 11.6568V10.4629C26.0998 5.32882 22.25 0.932337 17.3209 0.540959C14.6043 0.283442 11.8989 1.25369 9.90509 3.05459C7.90556 4.86061 6.74174 7.44212 6.74174 10.0957V11.6507C3.16276 12.5215 0.5 15.7507 0.5 19.6419V30.718C0.5 35.0356 4.03105 38.5 8.28203 38.5H24.4371C28.7521 38.5 32.2804 34.9717 32.2804 30.6568V19.5237ZM28.5878 30.718C28.5878 32.9508 26.7311 34.8075 24.4983 34.8075H8.34323C6.11043 34.8075 4.3149 33.012 4.3149 30.7792V19.6419C4.3149 17.1644 6.29401 15.1853 8.77158 15.1853H24.07C26.5638 15.1853 28.5878 17.1803 28.5878 19.5195V30.718Z" fill="white" stroke="black"/>
<path d="M16.4206 20.5498C15.4243 20.5498 14.5132 21.3716 14.5132 22.4573V28.8826C14.5132 29.8789 15.335 30.79 16.4206 30.79C17.4169 30.79 18.3281 29.9682 18.3281 28.8826V22.3961C18.3281 21.3575 17.4021 20.5498 16.4206 20.5498Z" fill="white" stroke="black"/>
</svg>
