<svg width="96" height="96" viewBox="0 0 96 96" fill="none" xmlns="http://www.w3.org/2000/svg">
<g id="Market">
<path id="Vector" d="M95.2128 7.94786V37.0733C94.0739 36.9107 92.9348 36.2597 91.9585 35.6089C90.006 34.1445 88.7042 31.7038 88.7042 29.1005V1.43945C92.284 1.43945 95.2128 4.36827 95.2128 7.94786ZM39.8909 1.43945V29.1005C39.8909 33.6564 36.3113 37.2362 31.7552 37.2362C27.1993 37.2362 23.6196 33.6566 23.6196 29.1005V1.43945H39.8909ZM72.4331 1.43945V29.1005C72.4331 33.6564 68.8535 37.2362 64.2974 37.2362C59.7414 37.2362 56.162 33.6564 56.162 29.1003V1.43945H72.4331ZM7.34844 1.43945V29.1005C7.34844 31.7038 6.04668 34.1445 4.09414 35.6089C3.11787 36.2597 1.97895 36.9107 0.839844 37.0733V7.94786C0.840034 4.36827 3.76885 1.43945 7.34844 1.43945Z" fill="#BD9711"/>
<path id="Vector_2" d="M23.6197 1.43945V29.1005C23.6197 33.6564 20.0401 37.2362 15.4841 37.2362C10.928 37.2362 7.34863 33.6564 7.34863 29.1003V1.43945H23.6197ZM56.1622 1.43945V29.1005C56.1622 33.6564 52.5826 37.2362 48.0265 37.2362C43.4705 37.2362 39.8909 33.6566 39.8909 29.1005V1.43945H56.1622ZM88.7046 1.43945V29.1005C88.7046 33.6564 85.125 37.2362 80.5689 37.2362C76.0129 37.2362 72.4333 33.6566 72.4333 29.1005V1.43945H88.7046Z" fill="#704B00"/>
<path id="Vector_3" d="M91.9586 66.5244V92.5582H82.1959H13.8569H4.09424V66.5244H91.9586Z" fill="#839D51"/>
<path id="Vector_4" d="M31.7555 48.6254L29.3148 66.3609V66.5236H18.0877V66.3609L15.4844 48.6254C15.4844 48.6254 17.1114 45.3711 23.62 45.3711C30.1286 45.3711 31.7555 48.6254 31.7555 48.6254Z" fill="#ECC882"/>
<path id="Vector_5" d="M82.1957 60.0151C82.1957 58.2252 80.7313 56.7608 78.9414 56.7608C77.1515 56.7608 75.6871 58.2252 75.6871 60.0151H82.1957ZM69.1789 60.0151C69.1789 58.2252 67.7145 56.7608 65.9246 56.7608C64.1347 56.7608 62.6703 58.2252 62.6703 60.0151H69.1789ZM56.1619 60.0151C56.1619 58.2252 54.6975 56.7608 52.9076 56.7608C51.1177 56.7608 49.6533 58.2252 49.6533 60.0151H56.1619ZM75.6873 50.2523C75.6873 48.4625 74.2229 46.998 72.433 46.998C70.6431 46.998 69.1787 48.4625 69.1787 50.2523H75.6873ZM62.6703 50.2523C62.6703 48.4625 61.2059 46.998 59.416 46.998C57.6261 46.998 56.1617 48.4625 56.1617 50.2523H62.6703Z" fill="#388C64"/>
<path id="Vector_6" d="M82.1694 96C81.6812 96 81.3557 95.6745 81.3557 95.1864V91.9321C81.3557 91.4439 81.6812 91.1185 82.1694 91.1185H91.1185V66.7117H10.5761C10.088 66.7117 9.76252 66.3862 9.76252 65.8981C9.76252 65.4099 10.088 65.0844 10.5761 65.0844H91.9321C92.4202 65.0844 92.7457 65.4099 92.7457 65.8981V91.9319C92.7457 92.42 92.4202 92.7455 91.9321 92.7455H82.983V95.1862C82.983 95.6745 82.6575 96 82.1694 96ZM13.8304 96C13.3423 96 13.0168 95.6745 13.0168 95.1864V92.7457H4.06773C3.5796 92.7457 3.25411 92.4202 3.25411 91.9321V42.3051C3.25411 41.817 3.5796 41.4915 4.06773 41.4915C4.55587 41.4915 4.88135 41.817 4.88135 42.3051V91.1186H13.8304C14.3186 91.1186 14.6441 91.4441 14.6441 91.9323V95.1864C14.6441 95.6745 14.3186 96 13.8304 96ZM75.661 92.7457H20.339C19.8509 92.7457 19.5254 92.4202 19.5254 91.9321C19.5254 91.4439 19.8509 91.1185 20.339 91.1185H75.661C76.1491 91.1185 76.4746 91.4439 76.4746 91.9321C76.4746 92.4202 76.1491 92.7457 75.661 92.7457ZM30.1017 60.2033C29.6136 60.2033 29.2881 59.7152 29.2881 59.227L30.9152 48.1626C30.427 47.5118 28.6371 45.5592 23.5931 45.5592C18.5491 45.5592 16.7592 47.5118 16.2711 48.1626L17.8982 59.227C17.8982 59.7152 17.5727 60.0406 17.2474 60.2033C16.7592 60.2033 16.4338 59.8778 16.2711 59.5525L14.6441 48.1627C14.6441 48.0001 14.6441 47.8373 14.6441 47.6746C14.6441 47.512 16.5966 43.9322 23.4305 43.9322C30.2644 43.9322 32.2169 47.5118 32.2169 47.6746C32.2169 47.8373 32.3796 48.0001 32.2169 48.1627L30.5899 59.5525C30.9152 59.878 30.427 60.2033 30.1017 60.2033ZM91.9321 60.2033C91.4439 60.2033 91.1185 59.8778 91.1185 59.3897V42.3049C91.1185 41.8168 91.4439 41.4913 91.9321 41.4913C92.4202 41.4913 92.7457 41.8168 92.7457 42.3049V59.3897C92.7457 59.878 92.4202 60.2033 91.9321 60.2033ZM82.1694 60.2033C81.6812 60.2033 81.3557 59.8778 81.3557 59.3897C81.3557 58.0879 80.2168 56.949 78.9151 56.949C77.6133 56.949 76.4744 58.0879 76.4744 59.3897C76.4744 59.8778 76.1489 60.2033 75.6608 60.2033C75.1726 60.2033 74.8472 59.8778 74.8472 59.3897C74.8472 57.1116 76.637 55.3219 78.9149 55.3219C81.1929 55.3219 82.9826 57.1118 82.9826 59.3897C82.983 59.878 82.6575 60.2033 82.1694 60.2033ZM69.1526 60.2033C68.6644 60.2033 68.3389 59.8778 68.3389 59.3897C68.3389 58.0879 67.2 56.949 65.8983 56.949C64.5965 56.949 63.4576 58.0879 63.4576 59.3897C63.4576 59.8778 63.1321 60.2033 62.644 60.2033C62.1558 60.2033 61.8303 59.8778 61.8303 59.3897C61.8303 57.1116 63.6202 55.3219 65.8981 55.3219C68.1761 55.3219 69.9658 57.1118 69.9658 59.3897C69.966 59.878 69.6407 60.2033 69.1526 60.2033ZM56.1356 60.2033C55.6474 60.2033 55.3219 59.8778 55.3219 59.3897C55.3219 58.0879 54.183 56.949 52.8813 56.949C51.5795 56.949 50.4406 58.0879 50.4406 59.3897C50.4406 59.8778 50.1151 60.2033 49.627 60.2033C49.1388 60.2033 48.8135 59.878 48.8135 59.3899C48.8135 57.1118 50.6034 55.3221 52.8813 55.3221C55.1591 55.3221 56.949 57.112 56.949 59.3899C56.9492 59.878 56.6237 60.2033 56.1356 60.2033ZM23.5931 60.2033C23.105 60.2033 22.7795 59.8778 22.7795 59.3897V52.8813C22.7795 52.3931 23.105 52.0676 23.5931 52.0676C24.0813 52.0676 24.4068 52.3931 24.4068 52.8813V59.3897C24.4068 59.878 24.0813 60.2033 23.5931 60.2033ZM75.661 50.4406C75.1728 50.4406 74.8473 50.1151 74.8473 49.627C74.8473 48.3252 73.7084 47.1863 72.4067 47.1863C71.1049 47.1863 69.966 48.3252 69.966 49.627C69.966 50.1151 69.6405 50.4406 69.1524 50.4406C68.6642 50.4406 68.3387 50.1151 68.3387 49.627C68.3387 47.3489 70.1286 45.5592 72.4065 45.5592C74.6845 45.5592 76.4742 47.3491 76.4742 49.627C76.4746 50.1153 76.1491 50.4406 75.661 50.4406ZM62.644 50.4406C62.1558 50.4406 61.8303 50.1151 61.8303 49.627C61.8303 48.3252 60.6914 47.1863 59.3897 47.1863C58.0879 47.1863 56.949 48.3252 56.949 49.627C56.949 50.1151 56.6235 50.4406 56.1354 50.4406C55.6472 50.4406 55.3217 50.1151 55.3217 49.627C55.3217 47.3489 57.1116 45.5592 59.3895 45.5592C61.6675 45.5592 63.4572 47.3491 63.4572 49.627C63.4576 50.1153 63.1321 50.4406 62.644 50.4406ZM80.5423 37.4238C76.9627 37.4238 73.8711 35.3086 72.4067 32.2169C70.9423 35.3084 67.8508 37.4238 64.271 37.4238C60.6912 37.4238 57.6 35.3084 56.1356 32.2169C54.6712 35.3084 51.5797 37.4238 47.9999 37.4238C44.4201 37.4238 41.3287 35.3086 39.8643 32.2169C38.3998 35.3084 35.3084 37.4238 31.7286 37.4238C28.149 37.4238 25.0574 35.3086 23.593 32.2169C22.1285 35.3084 19.0371 37.4238 15.4573 37.4238C11.8775 37.4238 8.78644 35.3084 7.32203 32.2169C6.18311 34.8203 3.90508 36.6101 0.97627 37.2609C0.813622 37.2609 0.488135 37.2609 0.325487 37.0983C0.162839 36.9356 0 36.7728 0 36.4475V7.32203C0 3.2543 3.2543 0 7.32203 0H88.678C92.7457 0 96 3.2543 96 7.32203V36.4475C96 36.6101 95.8374 36.9356 95.6745 37.0983C95.5119 37.2609 95.1864 37.2609 95.0237 37.2609C92.0949 36.6101 89.8169 34.8203 88.678 32.2169C87.2136 35.3084 84.1219 37.4238 80.5423 37.4238ZM73.2203 28.4745C73.2203 32.5422 76.4746 35.7965 80.5423 35.7965C84.6101 35.7965 87.8643 32.5422 87.8643 28.4745V7.32203C87.8643 6.83389 88.1898 6.50841 88.678 6.50841C89.1661 6.50841 89.4916 6.83389 89.4916 7.32203V28.4745C89.4916 31.566 91.4441 34.3321 94.3729 35.3084V7.32203C94.3729 4.23057 91.7696 1.62705 88.678 1.62705H7.32203C4.23057 1.62705 1.62705 4.23057 1.62705 7.32203V35.3084C4.55587 34.3321 6.50841 31.566 6.50841 28.4745V7.32203C6.50841 6.83389 6.83389 6.50841 7.32203 6.50841C7.81016 6.50841 8.13565 6.83389 8.13565 7.32203V28.4745C8.13565 32.5422 11.3899 35.7965 15.4577 35.7965C19.5254 35.7965 22.7797 32.5422 22.7797 28.4745V7.32203C22.7797 6.83389 23.1052 6.50841 23.5933 6.50841C24.0815 6.50841 24.407 6.83389 24.407 7.32203V28.4745C24.407 32.5422 27.6613 35.7965 31.729 35.7965C35.7967 35.7965 39.051 32.5422 39.051 28.4745V7.32203C39.051 6.83389 39.3765 6.50841 39.8646 6.50841C40.3528 6.50841 40.6783 6.83389 40.6783 7.32203V28.4745C40.6783 32.5422 43.9326 35.7965 48.0003 35.7965C52.068 35.7965 55.3223 32.5422 55.3223 28.4745V7.32203C55.3223 6.83389 55.6478 6.50841 56.1359 6.50841C56.6241 6.50841 56.9496 6.83389 56.9496 7.32203V28.4745C56.9496 32.5422 60.2039 35.7965 64.2716 35.7965C68.3393 35.7965 71.5936 32.5422 71.5936 28.4745V7.32203C71.5936 6.83389 71.9191 6.50841 72.4072 6.50841C72.8954 6.50841 73.2209 6.83389 73.2209 7.32203L73.2203 28.4745Z" fill="#D1A1A1"/>
</g>
</svg>
