<svg width="111" height="95" viewBox="0 0 111 95" fill="none" xmlns="http://www.w3.org/2000/svg">
<g id="Corporate">
<path id="Vector" d="M99.9 92.4994H74V25.8994L98.05 33.2994L99.9 92.4994Z" fill="#BD9711"/>
<path id="Vector_2" d="M11.1001 92.4994H37.0001V25.8994L12.9501 33.2994L11.1001 92.4994Z" fill="#BD9711"/>
<path id="Vector_3" d="M40.6997 18.5V0H70.2997V18.5" fill="#BD9711"/>
<path id="Vector_4" d="M51.8003 18.4996V11.0996H59.2003V18.4996" fill="#839D51"/>
<path id="Vector_5" d="M37 92.5V18.5H74V92.5" fill="#704B00"/>
<path id="Vector_6" d="M49.9502 92.5V74H61.0502V92.5" fill="#839D51"/>
<path id="Vector_7" d="M81.3999 92.5V74H92.4999V92.5" fill="#839D51"/>
<path id="Vector_8" d="M18.5 92.5V74H29.6V92.5" fill="#839D51"/>
<path id="Vector_9" d="M111 90.6504H0V94.3504H111V90.6504Z" fill="#3A2C03"/>
<path id="Vector_10" d="M51.7999 25.8994H44.3999V33.2994H51.7999V25.8994Z" fill="#090803"/>
<path id="Vector_11" d="M66.5997 25.8994H59.1997V33.2994H66.5997V25.8994Z" fill="#090803"/>
<path id="Vector_12" d="M51.7999 40.6992H44.3999V48.0992H51.7999V40.6992Z" fill="#090803"/>
<path id="Vector_13" d="M66.5997 40.6992H59.1997V48.0992H66.5997V40.6992Z" fill="#090803"/>
<path id="Vector_14" d="M51.7999 55.5H44.3999V62.9H51.7999V55.5Z" fill="#090803"/>
<path id="Vector_15" d="M27.7496 40.6992H20.3496V48.0992H27.7496V40.6992Z" fill="#090803"/>
<path id="Vector_16" d="M27.7496 55.5H20.3496V62.9H27.7496V55.5Z" fill="#090803"/>
<path id="Vector_17" d="M90.65 40.6992H83.25V48.0992H90.65V40.6992Z" fill="#090803"/>
<path id="Vector_18" d="M90.65 55.5H83.25V62.9H90.65V55.5Z" fill="#090803"/>
<path id="Vector_19" d="M66.5997 55.5H59.1997V62.9H66.5997V55.5Z" fill="#090803"/>
</g>
</svg>
