<svg width="136" height="98" viewBox="0 0 136 98" fill="none" xmlns="http://www.w3.org/2000/svg">
<g id="Group 128">
<circle id="Ellipse 14" cx="109.332" cy="28.3977" r="24.9192" fill="#839D51" stroke="black" stroke-width="3"/>
<path id="Vector" d="M84.6902 79.6662H86.1902V78.1662V63.7511C86.1902 61.9074 84.7066 60.4238 82.8629 60.4238H70.275C68.4314 60.4238 66.9478 61.9074 66.9478 63.7511V78.1662V79.6662H68.4478H84.6902Z" fill="#704B00" stroke="black" stroke-width="3"/>
<path id="Vector_2" d="M68.8285 97.4543C68.0519 97.4543 67.5342 96.7463 67.5342 95.6841V85.0631C67.5342 84.001 68.0519 83.293 68.8285 83.293C69.6051 83.293 70.1228 84.001 70.1228 85.0631V95.6841C70.1228 96.7463 69.6051 97.4543 68.8285 97.4543Z" fill="black"/>
<path id="Vector_3" d="M84.3597 97.4543C83.5831 97.4543 83.0654 96.7463 83.0654 95.6841V85.0631C83.0654 84.001 83.5831 83.293 84.3597 83.293C85.1364 83.293 85.6541 84.001 85.6541 85.0631V95.6841C85.6541 96.7463 85.1364 97.4543 84.3597 97.4543Z" fill="black"/>
<rect id="Rectangle 83" x="63.1406" y="76.6152" width="26.7544" height="9.85223" rx="4.92612" fill="#704B00" stroke="black" stroke-width="3"/>
<path id="Vector_4" d="M60.9353 79.6662H62.4353V78.1662V63.7511C62.4353 61.9074 60.9517 60.4238 59.108 60.4238H46.5201C44.6765 60.4238 43.1929 61.9074 43.1929 63.7511V78.1662V79.6662H44.6929H60.9353Z" fill="#704B00" stroke="black" stroke-width="3"/>
<path id="Vector_5" d="M45.0736 97.4543C44.297 97.4543 43.7793 96.7463 43.7793 95.6841V85.0631C43.7793 84.001 44.297 83.293 45.0736 83.293C45.8502 83.293 46.3679 84.001 46.3679 85.0631V95.6841C46.3679 96.7463 45.8502 97.4543 45.0736 97.4543Z" fill="black"/>
<path id="Vector_6" d="M60.6053 97.4543C59.8287 97.4543 59.311 96.7463 59.311 95.6841V85.0631C59.311 84.001 59.8287 83.293 60.6053 83.293C61.382 83.293 61.8997 84.001 61.8997 85.0631V95.6841C61.8997 96.7463 61.382 97.4543 60.6053 97.4543Z" fill="black"/>
<rect id="Rectangle 82" x="39.3862" y="76.6152" width="26.7544" height="9.85223" rx="4.92612" fill="#704B00" stroke="black" stroke-width="3"/>
<path id="Vector_7" d="M37.1814 79.6662H38.6814V78.1662V63.7511C38.6814 61.9074 37.1978 60.4238 35.3541 60.4238H22.7662C20.9226 60.4238 19.439 61.9074 19.439 63.7511V78.1662V79.6662H20.939H37.1814Z" fill="#704B00" stroke="black" stroke-width="3"/>
<path id="Vector_8" d="M12.9604 49.9092C11.7422 49.9092 10.9302 49.0971 10.9302 47.879C10.9302 39.9608 17.224 33.667 25.1421 33.667C26.3603 33.667 27.1724 34.479 27.1724 35.6972C27.1724 36.9154 26.3603 37.7274 25.1421 37.7274C19.4572 37.7274 14.9906 42.194 14.9906 47.879C14.9906 49.0971 14.1786 49.9092 12.9604 49.9092Z" fill="#BD9711"/>
<path id="Vector_9" d="M12.9603 49.909C11.7421 49.909 10.9301 49.097 10.9301 47.8788C10.9301 43.4122 7.27558 39.7577 2.80902 39.7577C1.59084 39.7577 0.778809 38.9457 0.778809 37.7275C0.778809 36.5093 1.59084 35.6973 2.80902 35.6973C9.50898 35.6973 14.9908 41.1791 14.9908 47.879C14.9905 49.097 14.1785 49.909 12.9603 49.909Z" fill="#BD9711"/>
<path id="Vector_10" d="M48.2969 14.6172C51.1394 14.6172 53.5758 17.2565 53.5758 20.5051C53.5758 23.7535 51.1394 26.393 48.2969 26.393H25.3545H24.7455C20.4818 26.393 17.0303 22.7385 17.0303 18.0688C17.0303 13.399 20.4818 9.74449 24.7455 9.74449C24.7455 9.74449 28.8061 2.0293 37.5363 2.0293C43.0181 2.0293 47.6878 6.08996 47.6878 14.6172H48.2969Z" fill="#BD9711"/>
<path id="Vector_11" d="M21.2941 18.018C21.2941 13.3482 24.7456 9.6937 29.0092 9.6937C29.0092 9.6937 32.0547 4.00897 38.3485 2.38465C37.3333 2.1817 36.5212 1.97852 35.506 1.97852C26.7758 1.97852 22.7152 9.6937 22.7152 9.6937C18.4516 9.6937 15 13.3482 15 18.018C15 22.6877 18.6545 26.3423 22.9181 26.3423H23.7302H29.0092C24.7456 26.342 21.2941 22.6875 21.2941 18.018Z" fill="white"/>
<path id="Vector_12" d="M21.3192 97.4543C20.5426 97.4543 20.0249 96.7463 20.0249 95.6841V85.0631C20.0249 84.001 20.5426 83.293 21.3192 83.293C22.0958 83.293 22.6135 84.001 22.6135 85.0631V95.6841C22.6135 96.7463 22.0958 97.4543 21.3192 97.4543Z" fill="black"/>
<path id="Vector_13" d="M36.851 97.4543C36.0743 97.4543 35.5566 96.7463 35.5566 95.6841V85.0631C35.5566 84.001 36.0743 83.293 36.851 83.293C37.6276 83.293 38.1453 84.001 38.1453 85.0631V95.6841C38.1453 96.7463 37.6276 97.4543 36.851 97.4543Z" fill="black"/>
<path id="Vector_14" d="M110.424 38.5754C109.815 38.5754 109.409 38.3724 109.003 37.9663L102.912 31.8754C102.1 31.0634 102.1 29.8452 102.912 29.0329C103.724 28.2207 104.942 28.2209 105.754 29.0329L111.845 35.1238C112.657 35.9359 112.657 37.154 111.845 37.9663C111.439 38.3724 111.033 38.5754 110.424 38.5754Z" fill="black"/>
<path id="Vector_15" d="M110.424 38.5753C109.815 38.5753 109.409 38.3724 109.003 37.9662C108.191 37.1542 108.191 35.936 109.003 35.1237L115.094 29.0329C115.906 28.2208 117.124 28.2208 117.936 29.0329C118.748 29.8449 118.748 31.0631 117.936 31.8753L111.846 37.9662C111.439 38.3724 111.033 38.5753 110.424 38.5753Z" fill="black"/>
<path id="Vector_16" d="M48.2969 28.4242H24.7454C19.2636 28.4242 15 23.7544 15 18.0697C15 12.7908 18.6545 8.32427 23.5272 7.71519C25.1515 5.48179 29.6181 0 37.3333 0C43.018 0 48.703 4.06066 49.515 12.7908C52.9666 13.3999 55.6059 16.6483 55.6059 20.506C55.6059 24.9726 52.3573 28.4242 48.2969 28.4242ZM37.2317 2.43635C29.9226 2.43635 25.7097 9.33926 25.5068 9.7454C25.1006 10.3545 24.3393 10.7606 23.5272 10.7606C20.4818 10.7606 17.5886 14.6183 17.5886 18.0697C17.5886 24.4396 21.4968 26.0385 24.7454 26.0385H48.2969C50.1241 26.0385 53.1441 22.7392 53.1441 20.506C53.1441 18.2726 52.3827 16.3692 50.5555 16.3692L48.9566 15.9885C47.7385 15.9885 47.0532 15.3033 47.0532 14.0851C47.0528 7.5879 42.3073 2.43635 37.2317 2.43635Z" fill="black"/>
<path id="Vector_17" d="M12.1815 47.8787C10.9634 47.8787 11.3947 46.4067 11.3947 45.1885C11.3947 40.7219 6.95334 36.8135 2.48678 36.8135C1.26861 36.8135 1.99923e-05 36.9154 1.99923e-05 35.6972C1.99923e-05 34.479 0.812055 33.667 2.03023 33.667C8.73019 33.667 14.212 39.1488 14.212 45.8487C14.2117 47.0664 13.3997 47.8787 12.1815 47.8787Z" fill="black"/>
<path id="Vector_18" d="M13.3668 47.5232C14.585 47.5232 14.1537 46.0512 14.1537 44.833C14.1537 40.3665 18.595 36.4581 23.0616 36.4581C24.2797 36.4581 25.5483 36.5599 25.5483 35.3417C25.5483 34.1236 24.7363 33.3115 23.5181 33.3115C16.8181 33.3115 11.3364 38.7933 11.3364 45.4933C11.3366 46.711 12.1486 47.5232 13.3668 47.5232Z" fill="black"/>
<rect id="Rectangle 81" x="15.6318" y="76.6152" width="26.7544" height="9.85223" rx="4.92612" fill="#704B00" stroke="black" stroke-width="3"/>
<path id="Vector_19" d="M110.424 97.4536C109.206 97.4536 108.394 96.6416 108.394 95.4234V36.5449C108.394 35.3267 109.206 34.5146 110.424 34.5146C111.642 34.5146 112.454 35.3267 112.454 36.5449V95.4234C112.454 96.6416 111.642 97.4536 110.424 97.4536Z" fill="black"/>
</g>
</svg>
